<svg xmlns="http://www.w3.org/2000/svg" width="28.542" height="21.08" viewBox="0 0 21.407 15.81"><g fill="#518581"><path d="M7.375.293a.75.75 0 1 1 1.06 1.06L7.375.294zM.823 7.905l-.53.53a.75.75 0 0 1 0-1.06l.53.53zm7.612 6.551a.75.75 0 0 1-1.06 1.06l1.06-1.06zm0-13.102L1.354 8.435.293 7.375 7.375.293l1.06 1.06zm-7.081 6.02 7.081 7.082-1.06 1.06-7.082-7.08 1.06-1.061z"/><path d="M20.657 7.155a.75.75 0 1 1 0 1.5v-1.5zm-19.635 1.5a.75.75 0 1 1 0-1.5v1.5zm19.635 0H1.022v-1.5h19.635v1.5z"/></g></svg>