<svg xmlns="http://www.w3.org/2000/svg" width="28.542" height="21.08" viewBox="0 0 21.407 15.81"><g fill="#fff"><path d="M14.032.293a.75.75 0 1 0-1.06 1.06l1.06-1.06zm6.551 7.612.53.53a.75.75 0 0 0 0-1.06l-.53.53zm-7.612 6.551a.75.75 0 0 0 1.061 1.06l-1.06-1.06zm0-13.102 7.082 7.081 1.06-1.06L14.033.293l-1.06 1.06zm7.082 6.02-7.082 7.082 1.061 1.06 7.082-7.08-1.061-1.061z"/><path d="M.75 7.155a.75.75 0 1 0 0 1.5v-1.5zm19.635 1.5a.75.75 0 1 0 0-1.5v1.5zm-19.635 0h19.635v-1.5H.75v1.5z"/></g></svg>