<svg xmlns="http://www.w3.org/2000/svg" width="30.633" height="26.5pt" viewBox="0 0 22.975 26.5"><g fill="#151411"><path d="M16.987 7a5.5 5.5 0 0 1-5.5 5.5V14a7 7 0 0 0 7-7h-1.5zm-5.5 5.5a5.5 5.5 0 0 1-5.5-5.5h-1.5a7 7 0 0 0 7 7v-1.5zM5.987 7a5.5 5.5 0 0 1 5.5-5.5V0a7 7 0 0 0-7 7h1.5zm5.5-5.5a5.5 5.5 0 0 1 5.5 5.5h1.5a7 7 0 0 0-7-7v1.5zM21.475 25.75a.75.75 0 0 0 1.5 0h-1.5zM0 25.75a.75.75 0 0 0 1.5 0H0zm22.975 0c0-5.388-5.3-9.5-11.488-9.5v1.5c5.663 0 9.988 3.713 9.988 8h1.5zm-11.488-9.5C5.3 16.25 0 20.362 0 25.75h1.5c0-4.287 4.325-8 9.987-8v-1.5z"/></g></svg>