<?xml version="1.0" encoding="UTF-8"?>
<svg xmlns="http://www.w3.org/2000/svg" xmlns:xlink="http://www.w3.org/1999/xlink" width="177pt" height="185.238434pt" viewBox="0 0 177 185.238434" version="1.1">
<defs>
<clipPath id="clip1">
  <path d="M 0 0 L 177 0 L 177 185.238281 L 0 185.238281 Z M 0 0 "/>
</clipPath>
<filter id="alpha" filterUnits="objectBoundingBox" x="0%" y="0%" width="100%" height="100%">
  <feColorMatrix type="matrix" in="SourceGraphic" values="0 0 0 0 1 0 0 0 0 1 0 0 0 0 1 0 0 0 1 0"/>
</filter>
<clipPath id="clip3">
  <path d="M 0 0 L 177 0 L 177 185.238281 L 0 185.238281 Z M 0 0 "/>
</clipPath>
<clipPath id="clip2">
  <rect width="177" height="186"/>
</clipPath>
<g id="surface8" clip-path="url(#clip2)">
<g clip-path="url(#clip3)" clip-rule="nonzero">
<rect x="0" y="0" width="177" height="186" style="fill:rgb(0%,0%,0%);fill-opacity:1;stroke:none;"/>
</g>
</g>
<mask id="mask0">
  <g filter="url(#alpha)">
<use xlink:href="#surface8"/>
  </g>
</mask>
<clipPath id="clip4">
  <rect width="177" height="186"/>
</clipPath>
<g id="surface5" clip-path="url(#clip4)">
<path style=" stroke:none;fill-rule:nonzero;fill:rgb(65.19928%,84.58252%,82.159424%);fill-opacity:1;" d="M 100.914063 170.28125 C 99.542969 170.425781 98.546875 171.65625 98.695313 173.03125 C 98.839844 174.402344 100.070313 175.398438 101.445313 175.25 Z M 124.6875 162.007813 L 122.710938 163.539063 L 122.714844 163.542969 Z M 112.070313 145.007813 C 111.066406 144.0625 109.484375 144.109375 108.539063 145.117188 C 107.589844 146.121094 107.640625 147.703125 108.644531 148.652344 Z M 51.707031 100.460938 L 54.207031 100.402344 Z M 56.40625 75.644531 L 54.398438 74.148438 Z M 69.6875 68.574219 L 70 66.09375 Z M 75.390625 88.488281 L 73.601563 86.738281 Z M 51.398438 90.269531 L 49.796875 92.1875 Z M 68.382813 7.429688 C 69.597656 6.773438 70.050781 5.257813 69.398438 4.042969 C 68.742188 2.828125 67.226563 2.375 66.007813 3.03125 Z M 101.445313 175.25 C 109.496094 174.394531 120.523438 172.984375 128.460938 170.722656 L 127.089844 165.914063 C 119.613281 168.042969 108.984375 169.417969 100.914063 170.28125 Z M 128.460938 170.726563 C 129.375 170.464844 129.96875 169.789063 130.230469 169.082031 C 130.445313 168.507813 130.417969 167.992188 130.394531 167.730469 C 130.335938 167.191406 130.152344 166.679688 130.019531 166.335938 C 129.71875 165.589844 129.253906 164.707031 128.8125 163.929688 C 127.945313 162.398438 126.875 160.75 126.660156 160.472656 L 122.714844 163.542969 C 122.695313 163.515625 123.613281 164.898438 124.464844 166.394531 C 124.878906 167.132813 125.207031 167.769531 125.371094 168.1875 C 125.46875 168.429688 125.4375 168.414063 125.417969 168.242188 C 125.410156 168.164063 125.375 167.800781 125.546875 167.335938 C 125.769531 166.746094 126.289063 166.144531 127.09375 165.914063 Z M 126.660156 160.472656 C 122.222656 154.757813 117.195313 149.828125 112.070313 145.007813 L 108.644531 148.652344 C 113.738281 153.441406 118.527344 158.148438 122.710938 163.539063 Z M 128.0625 165.835938 C 85.140625 160.878906 54.890625 130.191406 54.207031 100.402344 L 49.210938 100.519531 C 49.964844 133.527344 82.886719 165.648438 127.488281 170.804688 Z M 54.207031 100.402344 C 54.136719 97.277344 54.066406 94 54.285156 90.75 L 49.296875 90.414063 C 49.058594 93.921875 49.136719 97.417969 49.210938 100.519531 Z M 54.285156 90.75 C 54.636719 85.542969 55.714844 80.757813 58.410156 77.136719 L 54.398438 74.148438 C 50.847656 78.921875 49.671875 84.859375 49.296875 90.414063 Z M 58.410156 77.136719 C 59.660156 75.453125 61.480469 73.761719 63.507813 72.578125 C 65.550781 71.382813 67.59375 70.828125 69.371094 71.054688 L 70 66.09375 C 66.769531 65.683594 63.613281 66.726563 60.988281 68.257813 C 58.347656 69.800781 56.03125 71.957031 54.398438 74.148438 Z M 69.371094 71.054688 C 72.867188 71.496094 75.175781 73.957031 76.015625 77.167969 C 76.867188 80.433594 76.101563 84.183594 73.601563 86.738281 L 77.179688 90.234375 C 81.039063 86.285156 82.101563 80.671875 80.851563 75.902344 C 79.589844 71.082031 75.871094 66.835938 70 66.09375 Z M 73.601563 86.738281 C 71.328125 89.066406 67.613281 90.617188 63.621094 90.988281 C 59.625 91.359375 55.808594 90.503906 53.308594 88.59375 L 50.273438 92.570313 C 54.058594 95.457031 59.25 96.414063 64.082031 95.96875 C 68.925781 95.519531 73.867188 93.621094 77.179688 90.234375 Z M 53.308594 88.59375 C 53.203125 88.515625 53.101563 88.433594 53.003906 88.351563 L 49.796875 92.1875 C 49.953125 92.320313 50.113281 92.445313 50.273438 92.570313 Z M 53.003906 88.351563 C 38.457031 76.207031 35.347656 59.894531 39.332031 44.582031 C 43.34375 29.15625 54.546875 14.894531 68.382813 7.429688 L 66.007813 3.03125 C 50.945313 11.15625 38.851563 26.558594 34.492188 43.324219 C 30.101563 60.207031 33.542969 78.617188 49.796875 92.1875 Z M 53.003906 88.351563 "/>
</g>
</defs>
<g id="surface1">
<g clip-path="url(#clip1)" clip-rule="nonzero">
<use xlink:href="#surface5" mask="url(#mask0)"/>
</g>
</g>
</svg>
