<svg xmlns="http://www.w3.org/2000/svg" width="40.849" height="43.529" viewBox="0 0 30.637 32.646"><g fill="#ffb23f"><path d="m28.958 8.052.952 1.159a1.5 1.5 0 0 0-1.73-2.442l.778 1.283zM3.68 13.269l1.006-1.113a1.5 1.5 0 0 0-2.448 1.527l1.442-.414zM1.594 26.868l-1.218-.876a1.5 1.5 0 0 0 1.655 2.31l-.437-1.434zm12.314 2.347-.85 1.237a1.5 1.5 0 0 0 2.28-1.69l-1.43.453zM28.18 6.77c-4.05 2.455-7.22 4.346-9.807 5.722-2.599 1.382-4.515 2.191-6.067 2.545-1.5.342-2.634.252-3.72-.17-1.144-.447-2.344-1.303-3.9-2.71l-2.012 2.225c1.63 1.474 3.158 2.63 4.823 3.28 1.721.67 3.475.756 5.476.3 1.948-.444 4.146-1.405 6.808-2.821 2.674-1.422 5.914-3.356 9.954-5.806L28.18 6.77zM2.238 13.683c.747 2.6.922 4.748.614 6.678-.307 1.922-1.11 3.731-2.476 5.631l2.436 1.752c1.578-2.194 2.607-4.433 3.003-6.91.394-2.472.14-5.076-.693-7.979l-2.884.828zm-.207 14.62c3.52-1.073 5.325-1.03 6.607-.618.661.212 1.268.548 1.97 1.023.354.24.717.502 1.125.8.403.292.844.613 1.326.944l1.698-2.473c-.443-.305-.853-.602-1.26-.898-.4-.291-.805-.586-1.21-.859-.814-.55-1.689-1.059-2.733-1.394-2.128-.682-4.631-.543-8.397.605l.874 2.87zm13.307.46c-.535-1.69-.698-2.941-.542-4.044.154-1.084.637-2.178 1.668-3.507 2.148-2.77 6.293-6.125 13.446-12.001l-1.904-2.318c-6.981 5.735-11.5 9.369-13.913 12.48-1.249 1.612-2.02 3.183-2.267 4.926-.244 1.725.048 3.464.652 5.37l2.86-.907zM24.318 22.227a1.5 1.5 0 0 0-2.869.878l2.869-.878zm-2.436 3.053a1.5 1.5 0 0 0 2.946-.566l-2.946.566zm-.433-2.175c.2.655.254 1.246.433 2.175l2.946-.566c-.12-.62-.249-1.632-.51-2.487l-2.869.878z"/><path d="M19.613 26.05a1.5 1.5 0 1 0 .454 2.965l-.454-2.966zm2.366 2.542a1.5 1.5 0 0 0-.682-2.921l.682 2.921zm-1.912.423c.676-.104 1.41-.306 1.912-.423l-.682-2.921c-.684.16-1.16.298-1.684.378l.454 2.966z"/><path d="M25.582 28.552a1.5 1.5 0 0 0-3-.008l3 .008zm-2.563 2.876a1.5 1.5 0 0 0 2.853-.93l-2.853.93zm-.437-2.884c-.003.88.149 2 .437 2.884l2.853-.93c-.178-.544-.292-1.343-.29-1.946l-3-.008z"/><path d="M26.116 24.917a1.5 1.5 0 1 0-.242 2.99l.242-2.99zm2.505 2.626a1.5 1.5 0 1 0-.371-2.977l.371 2.977zm-2.747.364c.624.05 1.21-.053 1.645-.143.509-.106.782-.181 1.102-.221l-.371-2.977c-.479.06-1.026.195-1.339.26-.384.08-.62.105-.795.09l-.242 2.991zM9.853 1.424a1.5 1.5 0 0 0-2.984.305l2.984-.305zM7.29 4.389a1.5 1.5 0 1 0 2.94-.593l-2.94.593zm-.42-2.66c.093.913.246 1.8.42 2.66l2.94-.593a24.674 24.674 0 0 1-.376-2.372l-2.984.305z"/><path d="M4.9 4.832a1.5 1.5 0 0 0 .267 2.988L4.9 4.832zm2.267 2.721a1.5 1.5 0 0 0-.538-2.951l.538 2.951zm-2 .267a21.92 21.92 0 0 0 2-.267L6.63 4.602c-.573.104-1.135.177-1.729.23l.267 2.988z"/><path d="M10.93 7.58a1.5 1.5 0 0 0-3 .05l3-.05zM8.291 10.32a1.5 1.5 0 1 0 2.938-.606l-2.938.606zM7.93 7.63c.015.948.202 1.914.362 2.691l2.938-.606c-.161-.78-.29-1.499-.3-2.135l-3 .05z"/><path d="M11.068 3.981a1.5 1.5 0 1 0 .726 2.91l-.726-2.91zm2.669 2.438a1.5 1.5 0 0 0-.341-2.981l.34 2.98zm-1.943.473c.921-.23 1.322-.402 1.943-.473l-.341-2.981c-.872.1-1.806.413-2.328.543l.726 2.91z"/></g></svg>